<svg width="24" height="24" viewBox="0 0 24 24" fill="none" xmlns="http://www.w3.org/2000/svg">
<path d="M14 12C14 12.3956 13.8827 12.7822 13.6629 13.1111C13.4432 13.44 13.1308 13.6964 12.7654 13.8478C12.3999 13.9991 11.9978 14.0387 11.6098 13.9616C11.2219 13.8844 10.8655 13.6939 10.5858 13.4142C10.3061 13.1345 10.1156 12.7781 10.0384 12.3902C9.96126 12.0022 10.0009 11.6001 10.1522 11.2346C10.3036 10.8692 10.56 10.5568 10.8889 10.3371C11.2178 10.1173 11.6044 10 12 10C12.5299 10.0016 13.0377 10.2129 13.4124 10.5876C13.7871 10.9623 13.9984 11.4701 14 12ZM18.25 9.25V14.75C18.25 15.6783 17.8813 16.5685 17.2249 17.2249C16.5685 17.8813 15.6783 18.25 14.75 18.25H9.25C8.32174 18.25 7.4315 17.8813 6.77513 17.2249C6.11875 16.5685 5.75 15.6783 5.75 14.75V9.25C5.75 8.32174 6.11875 7.4315 6.77513 6.77513C7.4315 6.11875 8.32174 5.75 9.25 5.75H14.75C15.6783 5.75 16.5685 6.11875 17.2249 6.77513C17.8813 7.4315 18.25 8.32174 18.25 9.25ZM15 12C15 11.4067 14.8241 10.8266 14.4944 10.3333C14.1648 9.83994 13.6962 9.45542 13.1481 9.22836C12.5999 9.0013 11.9967 8.94189 11.4147 9.05764C10.8328 9.1734 10.2982 9.45912 9.87868 9.87868C9.45912 10.2982 9.1734 10.8328 9.05764 11.4147C8.94189 11.9967 9.0013 12.5999 9.22836 13.1481C9.45542 13.6962 9.83994 14.1648 10.3333 14.4944C10.8266 14.8241 11.4067 15 12 15C12.7956 15 13.5587 14.6839 14.1213 14.1213C14.6839 13.5587 15 12.7956 15 12ZM16 8.75C16 8.60166 15.956 8.45666 15.8736 8.33332C15.7912 8.20999 15.6741 8.11386 15.537 8.05709C15.4 8.00032 15.2492 7.98547 15.1037 8.01441C14.9582 8.04335 14.8246 8.11478 14.7197 8.21967C14.6148 8.32456 14.5434 8.4582 14.5144 8.60368C14.4855 8.74917 14.5003 8.89997 14.5571 9.03701C14.6139 9.17406 14.71 9.29119 14.8333 9.3736C14.9567 9.45601 15.1017 9.5 15.25 9.5C15.4489 9.5 15.6397 9.42098 15.7803 9.28033C15.921 9.13968 16 8.94891 16 8.75Z" fill="black"/>
<circle cx="12" cy="12" r="11.5" stroke="black"/>
</svg>
