<svg width="24" height="24" viewBox="0 0 24 24" fill="none" xmlns="http://www.w3.org/2000/svg">
<circle cx="12" cy="12" r="11.5" stroke="black"/>
<path d="M18.9733 8.00008C18.46 8.23341 17.9067 8.38675 17.3333 8.46008C17.92 8.10675 18.3733 7.54675 18.5867 6.87341C18.0333 7.20675 17.42 7.44008 16.7733 7.57341C16.2467 7.00008 15.5067 6.66675 14.6667 6.66675C13.1 6.66675 11.82 7.94675 11.82 9.52675C11.82 9.75341 11.8467 9.97341 11.8933 10.1801C9.52001 10.0601 7.40667 8.92008 6.00001 7.19341C5.75334 7.61341 5.61334 8.10675 5.61334 8.62675C5.61334 9.62008 6.11334 10.5001 6.88667 11.0001C6.41334 11.0001 5.97334 10.8667 5.58667 10.6667V10.6867C5.58667 12.0734 6.57334 13.2334 7.88001 13.4934C7.46049 13.6082 7.02007 13.6242 6.59334 13.5401C6.77441 14.1084 7.12903 14.6057 7.60735 14.962C8.08567 15.3184 8.66364 15.5159 9.26001 15.5267C8.24909 16.327 6.996 16.7596 5.70667 16.7534C5.48001 16.7534 5.25334 16.7401 5.02667 16.7134C6.29334 17.5267 7.80001 18.0001 9.41334 18.0001C14.6667 18.0001 17.5533 13.6401 17.5533 9.86008C17.5533 9.73341 17.5533 9.61341 17.5467 9.48675C18.1067 9.08675 18.5867 8.58008 18.9733 8.00008Z" fill="black"/>
</svg>
